<?xml version="1.0" encoding="UTF-8" standalone="no"?>
<!-- Created with Inkscape (http://www.inkscape.org/) -->
<svg
   xmlns:dc="http://purl.org/dc/elements/1.1/"
   xmlns:cc="http://web.resource.org/cc/"
   xmlns:rdf="http://www.w3.org/1999/02/22-rdf-syntax-ns#"
   xmlns:svg="http://www.w3.org/2000/svg"
   xmlns="http://www.w3.org/2000/svg"
   xmlns:sodipodi="http://sodipodi.sourceforge.net/DTD/sodipodi-0.dtd"
   xmlns:inkscape="http://www.inkscape.org/namespaces/inkscape"
   width="750"
   height="600"
   id="svg2"
   sodipodi:version="0.32"
   inkscape:version="0.44"
   version="1.0"
   sodipodi:docbase="C:\Documents and Settings\ltljltlj\Desktop\Signs\State Route Shields\Alabama\Done"
   sodipodi:docname="Alabama 110.svg">
  <defs
     id="defs4" />
  <sodipodi:namedview
     id="base"
     pagecolor="#ffffff"
     bordercolor="#666666"
     borderopacity="1.0"
     inkscape:pageopacity="0.0"
     inkscape:pageshadow="2"
     inkscape:zoom="1.2373333"
     inkscape:cx="375"
     inkscape:cy="299.99999"
     inkscape:document-units="px"
     inkscape:current-layer="g4165"
     inkscape:window-width="1013"
     inkscape:window-height="965"
     inkscape:window-x="260"
     inkscape:window-y="-3"
     width="750px" />
  <metadata
     id="metadata7">
    <rdf:RDF>
      <cc:Work
         rdf:about="">
        <dc:format>image/svg+xml</dc:format>
        <dc:type
           rdf:resource="http://purl.org/dc/dcmitype/StillImage" />
      </cc:Work>
    </rdf:RDF>
  </metadata>
  <g
     inkscape:label="Layer 1"
     inkscape:groupmode="layer"
     id="layer1">
    <g
       style="overflow:visible"
       id="g1366"
       transform="translate(205.7143,95.21933)">
      <path
         style="color:black;fill:black;fill-opacity:1;fill-rule:nonzero;stroke:none;stroke-width:0.8735441;stroke-linecap:butt;stroke-linejoin:miter;stroke-miterlimit:4;stroke-dashoffset:0;stroke-opacity:1;marker:none;marker-start:none;marker-mid:none;marker-end:none;visibility:visible;display:inline;overflow:visible"
         d="M -168.21429,-95.21933 L 506.78571,-95.21933 C 527.56071,-95.21933 544.28571,-78.49433 544.28571,-57.71933 L 544.28571,467.28067 C 544.28571,488.05567 527.56071,504.78067 506.78571,504.78067 L -168.21429,504.78067 C -188.98929,504.78067 -205.71429,488.05567 -205.71429,467.28067 L -205.71429,-57.71933 C -205.71429,-78.49433 -188.98929,-95.21933 -168.21429,-95.21933 z "
         id="rect1877" />
      <path
         id="path7"
         d="" />
      <path
         style="fill:white;fill-opacity:1;stroke:none;stroke-opacity:1"
         d="M -63.140574,490.53704 C -65.965537,488.71294 -66.11264,488.26506 -64.618261,486.03841 C -61.835013,481.89142 -56.454085,480.24553 -38.773426,478.13297 C -21.219086,476.03566 -16.097923,474.89282 -16.097923,473.07298 C -16.097923,471.28256 -32.588398,453.57061 -38.488739,449.02371 C -43.430754,445.21526 -44.262962,443.88795 -46.061001,436.94654 C -51.224911,417.01099 -61.571884,405.5021 -74.128145,405.72765 C -89.469498,406.00332 -101.09861,424.48375 -103.26956,452.03791 C -104.25467,464.54105 -104.99426,467.97767 -107.78098,473.00126 C -110.73249,478.32202 -111.98839,479.12865 -117.35357,479.14975 C -120.16213,479.16081 -122.71207,478.11025 -126.14648,475.52742 C -132.59912,470.67462 -135.1965,470.02439 -148.45933,469.94194 C -157.58366,469.88525 -160.33856,469.49791 -162.85733,467.91804 C -164.57045,466.84346 -168.59475,465.67771 -171.80026,465.32729 C -175.00577,464.97697 -177.67615,464.18181 -177.73443,463.56039 C -177.79273,462.93887 -178.00708,461.28942 -178.21073,459.89486 C -178.41442,458.50029 -178.98737,451.95474 -179.48401,445.34925 C -179.98063,438.74365 -180.56328,432.12578 -180.77881,430.64288 C -180.99433,429.15988 -181.54976,422.46969 -182.01305,415.77576 C -182.47638,409.08182 -183.09005,401.32295 -183.37674,398.53382 C -183.66344,395.74467 -184.2044,389.69732 -184.57889,385.09525 C -184.9534,380.49316 -185.56623,372.9625 -185.94073,368.36041 C -186.31521,363.75833 -186.85953,357.71098 -187.15034,354.92184 C -187.44111,352.1327 -188.01474,345.51483 -188.42504,340.21548 C -188.83535,334.91611 -189.41636,328.29824 -189.71621,325.50911 C -190.01603,322.71996 -190.61883,315.46121 -191.05575,309.37856 C -191.49268,303.296 -192.2559,293.93971 -192.75175,288.58679 C -193.72824,278.04599 -194.62306,283.15518 -179.0574,210.39377 C -175.53701,193.93784 -169.74176,166.78179 -166.1791,150.04695 C -162.6164,133.31213 -153.12488,88.812686 -145.08678,51.159316 C -137.04873,13.505951 -127.61926,-30.765283 -124.13247,-47.221209 C -120.64565,-63.677125 -117.4739,-78.396167 -117.08413,-79.930192 L -116.37542,-82.719331 L 167.05047,-82.719331 L 450.47637,-82.719331 L 451.91209,-77.394613 C 452.70166,-74.466019 460.50741,-44.913831 469.25802,-11.723076 C 478.00878,21.46767 494.62075,84.451488 506.17373,128.24096 C 517.72662,172.03043 527.95339,211.05302 528.89982,214.95781 C 533.12785,232.40037 532.70683,243.33633 527.65831,247.21373 C 524.38904,249.72456 521.07867,257.09265 519.82205,264.65518 C 519.35857,267.44432 517.92249,271.31696 516.6306,273.26114 C 513.45291,278.04355 513.69522,282.42797 517.66862,292.03945 C 520.56724,299.05114 521.10261,302.35764 521.60945,316.38101 C 522.09099,329.6989 521.77199,334.15452 519.83044,341.2297 C 517.92833,348.16127 517.54129,353.17726 517.85558,366.82588 C 518.24617,383.79063 518.24439,383.80259 515.05003,386.34984 C 513.28603,387.75638 510.26034,388.94617 508.29819,389.0048 C 506.34264,389.06322 399.85918,389.0267 271.66818,388.92356 L 38.593519,388.73612 L 38.435,391.09938 C 37.477503,405.37451 40.201783,411.55565 52.631965,423.3109 C 65.220947,435.21636 66.392961,448.91103 55.594412,457.92623 C 53.11997,459.99192 49.717503,464.76053 47.639072,469.07559 L 44.007396,476.6154 L 18.72434,484.00813 L -6.5587201,491.40076 L -33.280996,491.98181 C -58.683951,492.53417 -60.158173,492.46277 -63.140574,490.53704 z "
         id="path1483" />
      <g
         style="overflow:visible"
         id="g4165"
         transform="matrix(1,0,0,1.00064,-1117.941,-617.729)">
        <path
           transform="scale(0.999513,1.000488)"
           style="font-size:431.78973389px;font-style:normal;font-variant:normal;font-weight:normal;font-stretch:normal;text-align:center;line-height:125%;writing-mode:lr-tb;text-anchor:middle;font-family:Roadgeek 2005 Series D"
           d="M 1075.8731,909.73596 L 1075.8731,675.27445 L 1049.532,675.27445 L 1049.532,638.57601 L 1052.5495,638.57601 C 1058.5934,638.57629 1064.6373,636.99283 1070.6813,633.82564 C 1076.7252,630.65901 1081.7633,626.19414 1085.7955,620.43104 L 1122.494,620.43104 L 1122.494,909.73596 L 1075.8731,909.73596 z M 1211.6508,909.73596 L 1211.6508,675.27445 L 1185.3096,675.27445 L 1185.3096,638.57601 L 1188.3272,638.57601 C 1194.3711,638.57629 1200.415,636.99283 1206.459,633.82564 C 1212.5028,630.65901 1217.5409,626.19414 1221.5732,620.43104 L 1258.2716,620.43104 L 1258.2716,909.73596 L 1211.6508,909.73596 z M 1526.1768,765.51176 C 1526.1766,788.54559 1523.4423,810.56902 1517.974,831.58213 C 1512.5053,852.59539 1504.7329,869.58075 1494.657,882.53827 C 1478.5367,904.12249 1455.2219,914.91459 1424.7125,914.91459 C 1404.2702,914.91459 1387.4298,910.74182 1374.1912,902.39627 C 1360.9525,894.05074 1350.0155,880.95264 1341.3801,863.10193 C 1335.3361,850.72423 1330.443,835.68469 1326.7007,817.98328 C 1322.9584,800.28205 1321.0872,782.79156 1321.0872,765.51176 C 1321.0872,741.6261 1323.8939,719.46431 1329.5074,699.02631 C 1335.1209,678.58874 1342.8207,661.46063 1352.607,647.64191 C 1361.2424,636.70513 1371.5338,628.57262 1383.4812,623.24437 C 1395.4284,617.91669 1409.7475,615.25271 1426.4388,615.25241 C 1444.8603,615.25271 1460.5477,619.42767 1473.501,627.77732 C 1486.454,636.12753 1497.5382,649.22343 1506.7536,667.06507 C 1512.7974,680.02286 1517.5455,695.13707 1520.9982,712.40774 C 1524.4504,729.6788 1526.1766,747.38013 1526.1768,765.51176 L 1526.1768,765.51176 z M 1480.4125,765.51176 C 1480.4123,749.11073 1478.9738,733.92844 1476.0969,719.96485 C 1473.2197,706.00164 1468.8998,694.12682 1463.1372,684.34035 C 1458.5338,676.85595 1453.2827,671.38742 1447.3839,667.93477 C 1441.4847,664.48259 1434.2175,662.46648 1425.5822,661.88644 C 1414.3552,661.31568 1404.9994,663.90719 1397.5148,669.66098 C 1390.0301,675.41524 1383.8412,684.77103 1378.9482,697.72836 C 1375.2058,706.36401 1372.3991,716.79813 1370.528,729.03075 C 1368.6568,741.26373 1367.7212,753.42405 1367.7213,765.51176 C 1367.7212,781.06096 1369.1597,796.03241 1372.0368,810.42617 C 1374.9137,824.82012 1379.2292,836.62027 1384.9834,845.82665 C 1389.5953,853.31135 1395.066,858.92482 1401.3955,862.66709 C 1407.7248,866.40945 1415.4972,868.2806 1424.7125,868.28056 C 1435.3596,868.2806 1444.2102,865.40359 1451.2646,859.64951 C 1458.3186,853.89553 1464.2922,844.53975 1469.1855,831.58213 C 1470.626,827.83989 1472.0667,823.30694 1473.5076,817.98328 C 1474.9481,812.6598 1476.1714,807.04632 1477.1775,801.14285 C 1478.1831,795.23959 1478.9738,789.26594 1479.5494,783.22189 C 1480.1246,777.17809 1480.4123,771.27472 1480.4125,765.51176 L 1480.4125,765.51176 z "
           id="text1343" />
      </g>
    </g>
  </g>
</svg>
